<svg id="Capa_1" enable-background="new 0 0 512 512" height="512" viewBox="0 0 512 512" width="512" xmlns="http://www.w3.org/2000/svg"><g><path d="m421 50.997v165h-125v-30c0-16.54-13.46-30-30-30h-145v-105c0-19.3 15.7-35 35-35h230c19.3 0 35 15.7 35 35z" fill="#ffda2d"/><path d="m421 50.997v165h-125v-30c0-14.84-10.83-27.19-25-29.57v-140.43h115c19.3 0 35 15.7 35 35z" fill="#ffc024"/><path d="m512 245.997v140c0 19.3-15.7 35-35 35h-34.79v60c0 13.447-16.252 19.958-25.6 10.61l-70.61-70.61h-115c-19.3 0-35-15.7-35-35v-30h70c16.54 0 30-13.46 30-30v-115h181c19.3 0 35 15.7 35 35z" fill="#8cf6f9"/><path d="m512 245.997v140c0 19.3-15.7 35-35 35h-34.787v60c0 13.45-16.263 19.957-25.61 10.61l-70.603-70.61v-210h131c19.3 0 35 15.7 35 35z" fill="#83ebff"/><path d="m266 150.997h-231c-19.299 0-35 15.701-35 35v140c0 19.299 15.701 35 35 35h20v60c0 13.312 16.165 20.05 25.606 10.606l70.607-70.606h114.787c19.299 0 35-15.701 35-35v-140c0-19.299-15.701-35-35-35z" fill="#ff641a"/><path d="m301 185.997v140c0 19.3-15.7 35-35 35h-115v-210h115c19.3 0 35 15.7 35 35z" fill="#f24022"/><circle cx="151" cy="255.997" fill="#f24022" r="15"/><path d="m166 255.997c0 8.28-6.72 15-15 15v-30c8.28 0 15 6.72 15 15z" fill="#d8190f"/><circle cx="211" cy="255.997" fill="#d8190f" r="15"/><circle cx="91" cy="255.997" fill="#f24022" r="15"/><circle cx="346" cy="315.997" fill="#6dddf7" r="15"/><path d="m361 315.997c0 8.28-6.72 15-15 15v-30c8.28 0 15 6.72 15 15z" fill="#5fd3f2"/><circle cx="406" cy="315.997" fill="#5fd3f2" r="15"/><circle cx="271" cy="105.997" fill="#ffa829" r="15"/><path d="m286 105.997c0 8.28-6.72 15-15 15v-30c8.28 0 15 6.72 15 15z" fill="#ff8c1a"/><circle cx="331" cy="105.997" fill="#ff8c1a" r="15"/><circle cx="211" cy="105.997" fill="#ffa829" r="15"/></g></svg>